<?xml version="1.0" standalone="no"?>
<!DOCTYPE svg PUBLIC "-//W3C//DTD SVG 1.1//EN" "http://www.w3.org/Graphics/SVG/1.1/DTD/svg11.dtd"><svg t="1685859698373"
    class="icon" viewBox="0 0 1024 1024" version="1.1" xmlns="http://www.w3.org/2000/svg" p-id="2404"
    xmlns:xlink="http://www.w3.org/1999/xlink" width="200" height="200">
    <path
        d="M914.285714 224H758.857143l-37.028572-103.771429a36.651429 36.651429 0 0 0-34.514285-24.228571H336.685714c-15.428571 0-29.257143 9.714286-34.4 24.228571L265.142857 224H109.714286c-50.514286 0-91.428571 40.914286-91.428572 91.428571v521.142858c0 50.514286 40.914286 91.428571 91.428572 91.428571h804.571428c50.514286 0 91.428571-40.914286 91.428572-91.428571V315.428571c0-50.514286-40.914286-91.428571-91.428572-91.428571zM512 745.142857c-101.028571 0-182.857143-81.828571-182.857143-182.857143s81.828571-182.857143 182.857143-182.857143 182.857143 81.828571 182.857143 182.857143-81.828571 182.857143-182.857143 182.857143z m-109.714286-182.857143a109.714286 109.714286 0 1 0 219.428572 0 109.714286 109.714286 0 1 0-219.428572 0z"
        p-id="2405"></path>
</svg>