<?xml version="1.0" standalone="no"?>
<!DOCTYPE svg PUBLIC "-//W3C//DTD SVG 1.1//EN" "http://www.w3.org/Graphics/SVG/1.1/DTD/svg11.dtd"><svg t="1685859692243"
    class="icon" viewBox="0 0 1024 1024" version="1.1" xmlns="http://www.w3.org/2000/svg" p-id="2250"
    xmlns:xlink="http://www.w3.org/1999/xlink" width="200" height="200">
    <path
        d="M512.001535 397.61074c-106.045221 0-192.33654 83.494623-192.33654 186.094372 0 102.622262 86.291318 186.093349 192.33654 186.093349 106.044198 0 192.359053-83.471087 192.359053-186.093349C704.359564 481.105363 618.04471 397.61074 512.001535 397.61074zM512.001535 732.569558c-84.836177 0-153.877623-66.779939-153.877623-148.864446 0-82.08553 69.041446-148.866493 153.877623-148.866493 84.836177 0 153.875576 66.780963 153.875576 148.866493C665.877111 665.789619 596.837712 732.569558 512.001535 732.569558zM244.782517 391.190517l-70.381977 0c-15.526625 0-28.122501 12.170181-28.122501 27.205619 0 15.010879 12.595876 27.203572 28.122501 27.203572l70.381977 0c15.526625 0 28.146037-12.192693 28.146037-27.203572C272.928554 403.38321 260.309142 391.190517 244.782517 391.190517zM878.952998 325.034794 697.46862 325.034794l-28.166503-106.001219c-3.870144-16.756639-19.553335-28.882817-37.519522-28.882817L392.173402 190.150758c-17.71957 0.022513-33.066093 11.611455-37.272905 28.077475l-28.390607 106.806561L145.045979 325.034794c-41.612747 0-75.439156 31.142278-75.439156 69.421092l0 426.889577c0 38.277792 33.827433 69.399603 75.439156 69.399603l733.907019 0c41.589211 0 75.44018-31.121811 75.44018-69.399603L954.393177 394.434397C954.393177 356.177072 920.565744 325.034794 878.952998 325.034794zM915.912771 821.345464c0 17.740036-16.57756 32.194236-36.959773 32.194236L145.045979 853.5397c-20.38119 0-36.95875-14.4542-36.95875-32.194236L108.087229 394.434397c0-17.74106 16.57756-32.171724 36.95875-32.171724l196.385762 0c8.770757 0 16.444531-5.749958 18.637476-13.982456L392.173402 227.378637l239.563144-0.26913c0.090051 0.291642 0.135076 0.559748 0.226151 0.850367l31.992645 120.31932c2.168386 8.232498 9.843182 13.982456 18.612916 13.982456l196.384739 0c20.382213 0 36.959773 14.430664 36.959773 32.171724L915.912771 821.345464 915.912771 821.345464z"
        fill="#666666" p-id="2251"></path>
</svg>