<?xml version="1.0" standalone="no"?>
<!DOCTYPE svg PUBLIC "-//W3C//DTD SVG 1.1//EN" "http://www.w3.org/Graphics/SVG/1.1/DTD/svg11.dtd"><svg t="1685859712253"
    class="icon" viewBox="0 0 1024 1024" version="1.1" xmlns="http://www.w3.org/2000/svg" p-id="2712"
    xmlns:xlink="http://www.w3.org/1999/xlink" width="200" height="200">
    <path
        d="M794.624 99.84H230.912c-26.624 0-48.128 21.504-48.128 48.128v726.016c0 26.624 21.504 48.128 48.128 48.128h448.512c4.096 0 7.168-1.536 10.24-5.12l150.528-190.464c1.536-2.048 3.072-5.12 3.072-7.68V147.968c-1.024-26.624-22.528-48.128-48.64-48.128zM345.6 272.384h332.8c14.336 0 25.6 11.264 25.6 25.6s-11.264 25.6-25.6 25.6h-332.8c-14.336 0-25.6-11.264-25.6-25.6s11.776-25.6 25.6-25.6z m0 128.512h249.344c14.336 0 25.6 11.264 25.6 25.6s-11.264 25.6-25.6 26.112H345.6c-14.336 0-25.6-11.264-25.6-25.6 0.512-14.848 11.776-26.112 25.6-26.112zM320.512 547.84c0-14.336 11.264-25.6 25.6-26.112h332.8c14.336 0 25.6 11.264 26.112 26.112 0 14.336-11.264 25.6-26.112 26.112h-332.8c-14.336 0-25.6-11.776-25.6-26.112z m453.632 174.592L680.96 840.704c-3.584 4.608-11.264 2.048-11.264-3.584v-89.088c0-19.968 16.384-36.864 36.864-36.864h61.44c6.144-0.512 9.728 6.144 6.144 11.264z"
        p-id="2713"></path>
</svg>